<mxfile host="app.diagrams.net" modified="2023-05-14T09:03:50.086Z" agent="Mozilla/5.0 (Macintosh; Intel Mac OS X 10.15; rv:109.0) Gecko/20100101 Firefox/113.0" version="21.3.0" etag="WEp8EcpXL92L3uE7L09m" type="github">
  <diagram name="第 1 页" id="3-URR7dKRncWaUoYOUy0">
    <mxGraphModel>
      <root>
        <mxCell id="0" />
        <mxCell id="1" parent="0" />
      </root>
    </mxGraphModel>
  </diagram>
</mxfile>
